:SAMPLES-PER-SECOND 25
:FULLY-SPECIFIED
:DEGREES
63
root  -0.614349 49.9922 -40.7164 6.32681 -8.9795 -4.80944
RightUpLeg  -62.9111 -1.32228 6.80799
RightLeg  70.912 2.88937 8.48245
RightFoot  -20.882 0.00293573 1.73415
RightToes  2.84633e-005 7.89722e-005 -0.000426369
Spine  4.29127 -1.81448 1.83679
Spine1  9.15692 -2.71018 7.67964
HEad  9.47451 2.58056 -8.51861
LeftShoulder1  -3.88251e-019 0 -3.92111e-022
LeftArm  -24.9813 -12.3356 -82.3655
LeftForeArm  34.1624 -5.31416 -4.96102
LeftHand  -0.766677 -4.56609 9.21815
RightShoulder  7.45443e-017 -2.42657e-020 1.96277e-018
RightArm  -26.6455 -13.5068 65.9258
RightForeArm  21.6211 7.00426 6.2438
RightHand  -1.12844 8.37011 -9.85424
LeftUpLeg  -8.05453 -1.14075 0.971084
LeftLeg  21.0535 7.38856 3.58573
LeftFoot  -8.89871 -0.12467 8.32877
LeftToes  3.91355e-005 3.11907e-005 -4.10385e-006
64
root  -0.956301 50.2687 -39.4013 6.7585 -9.1322 -5.34611
RightUpLeg  -60.3506 -0.546812 7.95312
RightLeg  67.0579 3.44497 8.24402
RightFoot  -15.579 -0.0874629 0.267608
RightToes  2.84633e-005 7.89722e-005 -0.000426369
Spine  4.03634 -2.09922 2.09133
Spine1  8.56779 -3.40306 7.81708
HEad  8.72132 3.45157 -7.8751
LeftShoulder1  -3.88251e-019 0 -3.92111e-022
LeftArm  -24.7288 -11.5552 -82.7123
LeftForeArm  36.3062 -5.44701 -5.48594
LeftHand  -0.729085 -4.67873 8.68974
RightShoulder  7.45443e-017 -2.42657e-020 1.96277e-018
RightArm  -26.6734 -13.0693 65.3527
RightForeArm  23.9574 5.41716 5.04332
RightHand  -1.02421 8.27165 -9.04291
LeftUpLeg  -5.89607 -0.565011 1.54746
LeftLeg  19.9656 7.6533 3.63499
LeftFoot  -6.40397 -0.300687 7.80072
LeftToes  3.91355e-005 3.11907e-005 -4.10385e-006
65
root  -1.32983 50.6589 -37.9887 7.49128 -8.81837 -5.48417
RightUpLeg  -56.8414 0.471202 8.2824
RightLeg  64.7454 3.83063 8.23932
RightFoot  -12.7447 -0.114776 -2.47556
RightToes  2.84633e-005 7.89722e-005 -0.000426369
Spine  3.61353 -2.36468 2.26629
Spine1  7.63482 -4.05723 8.09387
HEad  8.79757 4.33822 -8.3611
LeftShoulder1  -3.88251e-019 0 -3.92111e-022
LeftArm  -25.4187 -10.3811 -83.4188
LeftForeArm  38.1544 -4.5949 -5.19079
LeftHand  -0.702985 -4.58251 8.46525
RightShoulder  7.45443e-017 -2.42657e-020 1.96277e-018
RightArm  -27.1947 -13.5233 65.1248
RightForeArm  23.5352 5.19098 4.26917
RightHand  -1.00314 8.01925 -9.02169
LeftUpLeg  -4.23862 0.356818 1.96081
LeftLeg  18.8973 6.97818 3.32827
LeftFoot  -2.91128 -0.426498 6.00722
LeftToes  3.91355e-005 3.11907e-005 -4.10385e-006
66
root  -1.70688 51.2065 -36.5887 7.89112 -8.34442 -5.34021
RightUpLeg  -53.3985 1.61251 7.99912
RightLeg  63.1641 3.44806 6.84888
RightFoot  -13.3403 -0.153641 -3.63851
RightToes  2.84633e-005 7.89722e-005 -0.000426369
Spine  3.39031 -2.49042 2.42319
Spine1  7.11844 -4.43881 8.43171
HEad  8.53982 4.77575 -9.59178
LeftShoulder1  -3.88251e-019 0 -3.92111e-022
LeftArm  -26.7203 -9.18773 -84.5046
LeftForeArm  38.1684 -3.27158 -4.44991
LeftHand  -0.72859 -4.36038 8.94893
RightShoulder  7.45443e-017 -2.42657e-020 1.96277e-018
RightArm  -27.7581 -14.3148 65.1657
RightForeArm  19.9936 6.2977 4.26256
RightHand  -1.0513 7.95764 -9.47543
LeftUpLeg  -3.30206 1.53415 2.49143
LeftLeg  19.2022 5.94143 2.83549
LeftFoot  1.8991 -0.418393 3.50493
LeftToes  3.91355e-005 3.11907e-005 -4.10385e-006
67
root  -2.05618 51.8764 -35.3558 7.70108 -7.37887 -4.97869
RightUpLeg  -49.8683 2.20776 7.53062
RightLeg  61.4292 2.67995 4.82291
RightFoot  -14.3402 -0.181572 -3.22767
RightToes  2.84633e-005 7.89722e-005 -0.000426369
Spine  3.44148 -2.52676 2.6236
Spine1  7.13919 -4.67763 8.64596
HEad  8.26961 4.37917 -10.574
LeftShoulder1  -3.88251e-019 0 -3.92111e-022
LeftArm  -27.9189 -8.31696 -85.88
LeftForeArm  37.2167 -1.49414 -3.546
LeftHand  -0.767108 -4.37764 9.39022
RightShoulder  7.45443e-017 -2.42657e-020 1.96277e-018
RightArm  -27.9249 -14.787 65.4736
RightForeArm  16.9005 7.67185 4.67929
RightHand  -1.15143 8.33061 -10.0733
LeftUpLeg  -4.4319 2.02491 2.96762
LeftLeg  23.1815 4.45772 2.41376
LeftFoot  8.9055 -0.781954 3.99329
LeftToes  3.91355e-005 3.11907e-005 -4.10385e-006
68
root  -2.36013 52.5607 -34.3115 7.26716 -5.83434 -4.72844
RightUpLeg  -45.8592 2.36698 7.35296
RightLeg  58.8485 2.06442 3.22537
RightFoot  -14.7449 -0.188125 -2.9711
RightToes  2.84633e-005 7.89722e-005 -0.000426369
Spine  3.53351 -2.35099 3.0551
Spine1  7.22157 -4.51411 8.88651
HEad  8.90182 3.02398 -10.649
LeftShoulder1  -3.88251e-019 0 -3.92111e-022
LeftArm  -28.5615 -7.68156 -87.4202
LeftForeArm  37.5888 0.324414 -2.94896
LeftHand  -0.744357 -4.4899 9.02286
RightShoulder  7.45443e-017 -2.42657e-020 1.96277e-018
RightArm  -27.6623 -15.4205 65.7709
RightForeArm  16.3796 8.95699 5.5317
RightHand  -1.26319 8.91205 -10.5867
LeftUpLeg  -8.58521 1.58057 3.27456
LeftLeg  32.2893 1.89491 1.61664
LeftFoot  15.0077 -1.89444 7.68983
LeftToes  3.91355e-005 3.11907e-005 -4.10385e-006
69
root  -2.59162 53.21 -33.3723 6.6864 -4.61299 -4.89306
RightUpLeg  -41.6253 2.75549 7.60742
RightLeg  55.8271 1.48982 1.94729
RightFoot  -15.3462 -0.188433 -2.43854
RightToes  2.84633e-005 7.89722e-005 -0.000426369
Spine  3.67841 -1.79267 3.81167
Spine1  7.41052 -3.5852 9.1716
HEad  9.69521 1.16171 -10.1783
LeftShoulder1  -3.88251e-019 0 -3.92111e-022
LeftArm  -28.9718 -6.74123 -88.611
LeftForeArm  39.5168 0.886422 -3.27027
LeftHand  -0.671049 -4.46719 8.18201
RightShoulder  7.45443e-017 -2.42657e-020 1.96277e-018
RightArm  -26.8707 -16.0735 66.1169
RightForeArm  16.739 10.2479 6.48785
RightHand  -1.34156 9.40074 -10.8658
LeftUpLeg  -15.0378 1.37332 3.49444
LeftLeg  46.4465 0.363686 0.817551
LeftFoot  14.7653 -2.31904 9.62464
LeftToes  3.91355e-005 3.11907e-005 -4.10385e-006
